<?xml version="1.0" encoding="utf-8"?>
<!-- Generator: Adobe Illustrator 16.0.4, SVG Export Plug-In . SVG Version: 6.00 Build 0)  -->
<!DOCTYPE svg PUBLIC "-//W3C//DTD SVG 1.1//EN" "http://www.w3.org/Graphics/SVG/1.1/DTD/svg11.dtd">
<svg version="1.1" id="Layer_1" xmlns="http://www.w3.org/2000/svg" xmlns:xlink="http://www.w3.org/1999/xlink" x="0px" y="0px"
	 width="108.5px" height="112px" viewBox="0 0 108.5 112" enable-background="new 0 0 108.5 112" xml:space="preserve">
<path d="M108.5,88.34v5.567H90.234V112h-5.59V93.907H66.5V88.34h18.145V70h5.59v18.34H108.5z M54.675,60.83
	c-4.821,2.586-10.332,4.061-16.18,4.061c-5.843,0-11.349-1.471-16.175-4.061C11.904,63.568,3.738,70.051,0,84h77
	C73.258,70.051,65.1,63.564,54.675,60.83z M10.5,28c0-15.465,12.535-28,28-28s28,12.535,28,28s-12.535,28-28,28S10.5,43.465,10.5,28
	z M19.782,37.333C23.227,44.226,30.271,49,38.5,49s15.273-4.774,18.718-11.667H19.782z"/>
</svg>
