<?xml version="1.0" encoding="UTF-8" standalone="no"?>
<!-- Created with Inkscape (http://www.inkscape.org/) -->

<svg
   xmlns:dc="http://purl.org/dc/elements/1.1/"
   xmlns:cc="http://creativecommons.org/ns#"
   xmlns:rdf="http://www.w3.org/1999/02/22-rdf-syntax-ns#"
   xmlns:svg="http://www.w3.org/2000/svg"
   xmlns="http://www.w3.org/2000/svg"
   xmlns:sodipodi="http://sodipodi.sourceforge.net/DTD/sodipodi-0.dtd"
   xmlns:inkscape="http://www.inkscape.org/namespaces/inkscape"
   width="744.09448819"
   height="1052.3622047"
   id="svg2"
   version="1.1"
   inkscape:version="0.47 r22583"
   sodipodi:docname="qrcode.svg">
  <defs
     id="defs4">
    <inkscape:perspective
       sodipodi:type="inkscape:persp3d"
       inkscape:vp_x="0 : 526.18109 : 1"
       inkscape:vp_y="0 : 1000 : 0"
       inkscape:vp_z="744.09448 : 526.18109 : 1"
       inkscape:persp3d-origin="372.04724 : 350.78739 : 1"
       id="perspective10" />
    <inkscape:perspective
       id="perspective3802"
       inkscape:persp3d-origin="372.04724 : 350.78739 : 1"
       inkscape:vp_z="744.09448 : 526.18109 : 1"
       inkscape:vp_y="0 : 1000 : 0"
       inkscape:vp_x="0 : 526.18109 : 1"
       sodipodi:type="inkscape:persp3d" />
    <inkscape:perspective
       id="perspective309"
       inkscape:persp3d-origin="99.441002 : 128.11967 : 1"
       inkscape:vp_z="198.882 : 192.1795 : 1"
       inkscape:vp_y="0 : 1000 : 0"
       inkscape:vp_x="0 : 192.1795 : 1"
       sodipodi:type="inkscape:persp3d" />
  </defs>
  <sodipodi:namedview
     id="base"
     pagecolor="#ffffff"
     bordercolor="#666666"
     borderopacity="1.0"
     inkscape:pageopacity="0.0"
     inkscape:pageshadow="2"
     inkscape:zoom="0.98449185"
     inkscape:cx="394.24755"
     inkscape:cy="622.74349"
     inkscape:document-units="px"
     inkscape:current-layer="layer1"
     showgrid="false"
     inkscape:window-width="1269"
     inkscape:window-height="722"
     inkscape:window-x="0"
     inkscape:window-y="25"
     inkscape:window-maximized="1" />
  <metadata
     id="metadata7">
    <rdf:RDF>
      <cc:Work
         rdf:about="">
        <dc:format>image/svg+xml</dc:format>
        <dc:type
           rdf:resource="http://purl.org/dc/dcmitype/StillImage" />
        <dc:title></dc:title>
      </cc:Work>
    </rdf:RDF>
  </metadata>
  <g
     inkscape:label="Livello 1"
     inkscape:groupmode="layer"
     id="layer1">
    <g
       id="g3874">
      <g
         id="g3856">
        <g
           id="g236"
           style="fill:#1a1a1a"
           transform="translate(343.29222,285.48514)">
	<path
   d="m 198.882,355.359 c 0,16.016 -12.983,29 -29,29 H 29 c -16.016,0 -29,-12.984 -29,-29 V 29 C 0,12.984 12.984,0 29,0 h 140.882 c 16.017,0 29,12.984 29,29 v 326.359 z"
   id="path238"
   style="fill:#1a1a1a" />

</g>
        <g
           id="g240"
           style="fill:#000000"
           transform="translate(343.29222,285.48514)">
	<path
   d="m 191.708,349.708 c 0,16.346 -13.681,29.595 -30.561,29.595 H 36.233 c -16.878,0 -30.561,-13.249 -30.561,-29.595 V 36.034 C 5.672,19.689 19.354,6.439 36.233,6.439 h 124.915 c 16.88,0 30.561,13.25 30.561,29.595 v 313.674 z"
   id="path242"
   style="fill:#000000" />

</g>
        <path
           style="fill:#ffffff;stroke:#000000"
           d="m 527.49322,626.76214 c 0,16.017 -12.983,29 -29,29 h -112 c -16.016,0 -29,-12.983 -29,-29 v -300 c 0,-16.016 12.984,-29 29,-29 h 112 c 16.017,0 29,12.984 29,29 v 300 z"
           id="path244" />
        <path
           style="fill:url(#SVGID_1_)"
           d="m 527.49322,626.76214 c 0,16.017 -12.983,29 -29,29 h -112 c -16.016,0 -29,-12.983 -29,-29 v -300 c 0,-16.016 12.984,-29 29,-29 h 112 c 16.017,0 29,12.984 29,29 v 300 z"
           id="path267" />
        <path
           style="fill:url(#SVGID_2_)"
           d="m 527.49322,498.86414 v -172.102 c 0,-16.016 -12.983,-29 -29,-29 h -112 c -16.016,0 -29,12.984 -29,29 v 164.645 c 43.648,16.149 107.514,29.898 170,7.457 z"
           id="path290" />
        <path
           d="m 357.49322,629.38514 c 0,16.226 12.984,29.378 29,29.378 h 112 c 16.017,0 29,-13.152 29,-29.378 v -26.847 h -170 v 26.847 z m 141,-333.29 h -112 c -16.016,0 -29,13.153 -29,29.378 v 17.728 h 170 v -17.728 c 0,-16.224 -12.984,-29.378 -29,-29.378 z"
           id="path292"
           style="fill:#1a1a1a;stroke:#000000;stroke-width:4;stroke-miterlimit:4;stroke-opacity:1;stroke-dasharray:none" />
        <g
           id="g3569"
           transform="translate(62.14916,-0.88838443)">
          <rect
             style="fill:#000000;fill-opacity:1"
             id="rect3571"
             width="44.02943"
             height="23.163309"
             x="306.90964"
             y="613.67017"
             rx="4.1317368"
             ry="4.2209301" />
          <path
             style="fill:#4d4d4d;fill-opacity:1"
             d="m 350.93907,625.53895 c 0,0 -8.83822,3.40622 -21.44041,3.25435 -12.6022,-0.15187 -22.58902,-3.25435 -22.58902,-3.25435 l 0,7.36072 c 0,2.33839 1.84275,4.22093 4.13173,4.22093 l 35.76596,0 c 2.28898,0 4.13174,-1.88254 4.13174,-4.22093 l 0,-7.36072 z"
             id="path3573"
             sodipodi:nodetypes="czcccccc" />
          <rect
             style="fill:#999999;fill-opacity:1"
             id="rect3575"
             width="37.137867"
             height="16.463179"
             x="310.35547"
             y="617.49878"
             rx="2"
             ry="2" />
        </g>
        <g
           transform="translate(164.10515,-0.88838443)"
           id="g3577">
          <rect
             ry="4.2209301"
             rx="4.1317368"
             y="613.67017"
             x="306.90964"
             height="23.163309"
             width="44.02943"
             id="rect3579"
             style="fill:#000000;fill-opacity:1" />
          <path
             sodipodi:nodetypes="czcccccc"
             id="path3581"
             d="m 350.93907,625.53895 c 0,0 -8.83822,3.40622 -21.44041,3.25435 -12.6022,-0.15187 -22.58902,-3.25435 -22.58902,-3.25435 l 0,7.36072 c 0,2.33839 1.84275,4.22093 4.13173,4.22093 l 35.76596,0 c 2.28898,0 4.13174,-1.88254 4.13174,-4.22093 l 0,-7.36072 z"
             style="fill:#4d4d4d;fill-opacity:1" />
          <rect
             ry="2"
             rx="2"
             y="617.49878"
             x="310.35547"
             height="16.463179"
             width="37.137867"
             id="rect3583"
             style="fill:#999999;fill-opacity:1" />
        </g>
      </g>
      <g
         transform="translate(-165.33078,-68.144106)"
         id="g3638">
        <rect
           style="fill:#000000;fill-opacity:1"
           id="rect3529"
           width="118.96405"
           height="118.96405"
           x="548.58197"
           y="486.32672" />
        <rect
           y="501.19724"
           x="563.45245"
           height="89.223038"
           width="89.223038"
           id="rect3585"
           style="fill:#ffffff;fill-opacity:1" />
        <g
           id="g3623"
           transform="translate(2,2)">
          <rect
             y="509.04065"
             x="570.26276"
             height="14.275686"
             width="14.275686"
             id="rect3589"
             style="fill:#000000;fill-opacity:1" />
          <rect
             style="fill:#000000;fill-opacity:1"
             id="rect3599"
             width="14.275686"
             height="14.275686"
             x="584.26276"
             y="523.04065" />
          <rect
             y="537.04065"
             x="598.26276"
             height="14.275686"
             width="14.275686"
             id="rect3601"
             style="fill:#000000;fill-opacity:1" />
          <rect
             style="fill:#000000;fill-opacity:1"
             id="rect3603"
             width="14.275686"
             height="14.275686"
             x="612.26276"
             y="551.04065" />
          <rect
             y="523.04065"
             x="612.26276"
             height="14.275686"
             width="14.275686"
             id="rect3605"
             style="fill:#000000;fill-opacity:1" />
          <rect
             style="fill:#000000;fill-opacity:1"
             id="rect3607"
             width="14.275686"
             height="14.275686"
             x="626.26276"
             y="537.04065" />
          <rect
             y="509.04065"
             x="626.26276"
             height="14.275686"
             width="14.275686"
             id="rect3609"
             style="fill:#000000;fill-opacity:1" />
          <rect
             style="fill:#000000;fill-opacity:1"
             id="rect3611"
             width="14.275686"
             height="14.275686"
             x="626.26276"
             y="565.04065" />
          <rect
             y="565.04065"
             x="598.26276"
             height="14.275686"
             width="14.275686"
             id="rect3613"
             style="fill:#000000;fill-opacity:1" />
          <rect
             style="fill:#000000;fill-opacity:1"
             id="rect3615"
             width="14.275686"
             height="14.275686"
             x="570.26276"
             y="565.04065" />
          <rect
             y="551.04065"
             x="584.26276"
             height="14.275686"
             width="14.275686"
             id="rect3617"
             style="fill:#000000;fill-opacity:1" />
          <rect
             style="fill:#000000;fill-opacity:1"
             id="rect3619"
             width="14.275686"
             height="14.275686"
             x="570.26276"
             y="537.04065" />
          <rect
             y="509.04065"
             x="598.26276"
             height="14.275686"
             width="14.275686"
             id="rect3621"
             style="fill:#000000;fill-opacity:1" />
        </g>
      </g>
    </g>
    <g
       id="g4787"
       transform="translate(142.9542,-79.942774)">
      <path
         id="path4769"
         d="m 143.02759,381.31878 c 0,-39.94225 32.37959,-72.32185 72.32185,-72.32185"
         style="fill:none;stroke:#000000;stroke-width:15;stroke-linecap:square;stroke-miterlimit:4" />
      <path
         style="fill:none;stroke:#000000;stroke-width:15;stroke-linecap:square;stroke-miterlimit:4;stroke-dasharray:none"
         d="m 179.18851,381.31878 c 0,-19.97113 16.1898,-36.16093 36.16093,-36.16093"
         id="path4771" />
      <path
         style="fill:none;stroke:#000000;stroke-width:15;stroke-linecap:square;stroke-miterlimit:4;stroke-dasharray:none"
         d="m 106.86667,381.31878 c 0,-59.91337 48.56938,-108.48277 108.48277,-108.48277"
         id="path4775" />
    </g>
  </g>
</svg>
